<?xml version="1.0" encoding="UTF-8"?>
<svg width="66" height="66" version="1.1" viewBox="0 0 66 66" xml:space="preserve" xmlns="http://www.w3.org/2000/svg">
  <path id="lt-wings" d="m19.5 22.7c-1.06-0.086-3.83 1.89-6.83 4.32-4.32 3.5-5.64 5.54-5.64 6.78s1.31 1.37 3.01 2.59c1.69 1.22 2.54 1.91 2.74 3.68 0.259 2.25-1.34 4.83-0.724 5.38 0.425 0.382 2.47 0.612 3.24 1.15 0.742 0.514 1.28 2.22 2.26 2.55 0.752 0.253 1.28-0.581 2.82-0.031 2.31 0.826 3.58 3.37 4.69 5.57 0.732 1.45 1.58 2.37 2.59 3.1 1.32 0.956 3.39 1.34 5.31 1.34 0 2e-4 0 0 0.01 0 0 0 0 2e-4 0.01 0 1.93 0.01 4-0.38 5.31-1.34 1-0.727 1.86-1.65 2.59-3.1 1.11-2.2 2.38-4.74 4.69-5.57 1.54-0.55 2.07 0.284 2.82 0.031 0.979-0.33 1.52-2.04 2.26-2.55 0.772-0.535 2.82-0.766 3.24-1.15 0.614-0.552-0.983-3.13-0.724-5.38 0.203-1.77 1.05-2.46 2.74-3.68s3.01-1.35 3.01-2.59-1.32-3.28-5.64-6.78c-3-2.43-5.77-4.41-6.83-4.32-0.071 0.01-0.134 0.021-0.189 0.045-0.511 0.227-1.29-0.065-4.2 5.55-1.07 2.06-2.01 7.7-9.09 7.64-7.08 0.062-8.02-5.58-9.09-7.64-2.91-5.61-3.69-5.32-4.2-5.55-0.055-0.025-0.118-0.039-0.189-0.045z" fill="#242424"/>
  <path id="lt-bottom-band" d="m32.7 49.7c7.26-0.074 8.67-0.817 8.88-0.361 0.283 0.617 0.01 3.28-0.253 3.56-0.438 0.483-5.59 1.02-8.42 1.01-3.04-0.014-8.16-0.411-8.36-0.821-0.268-0.529-0.93-3.32-0.688-3.65 0.213-0.291 3.64 0.318 8.84 0.265z" fill="#ffb821"/>
  <path id="lt-top-band" d="m31.9 41.2c2.66 0 8.57 0.354 8.99 1.04 0.174 0.286 0.639 2.48 0.481 3.04-0.14 0.498-3.34-0.078-8.65-0.32-5.32-0.242-8.8 0.664-9.09 0.299-0.22-0.278 0.394-3.14 0.573-3.29 0.668-0.548 4.5-0.771 7.71-0.771z" fill="#ffb821"/>
  <path id="lt-right-antenna" d="m28.9 20s-2.21-5.6-2.85-9.43c-0.427-2.55-1.94-3.16-2.45-2.9-0.768 0.388-0.968 1.98 0.474 4.24 2.09 3.28 3.89 8.54 3.89 8.54z" fill="#242424"/>
  <path id="lt-left-antenna" d="m38.8 20.9s2.97-5.56 4.98-8.66c1.41-2.17 1.05-3.62 0.529-3.84-0.968-0.407-2 0.728-2.73 3.31-0.846 2.99-3.57 8.71-3.57 8.71z" fill="#242424"/>
  <path id="lt-head" d="m42.1 27.8c-0.128 5.96-4.39 9.37-9.43 9.37s-8.83-4.27-8.83-9.37c0-5.11 4.17-9.29 9.21-9.29s9.15 4.18 9.04 9.29z" fill="#ffb821" stroke="#8c5408" stroke-width=".435"/>
  <g id="lt-right-eye">
    <path id="lt-right-iris" d="m31.128 24.7c-0.577 1.37-2.02 2.57-3.3 2.21-1.27-0.353-1.66-2.16-1.36-3.54 0.387-1.74 2.67-3.34 3.94-2.68 1.18 0.603 1.3 2.61 0.713 4.01z" fill="#242424" stroke="#fff" stroke-width=".77"/>
    <path id="lt-right-pupil" d="m29.328 22c0.159 0.343-0.0211 0.838-0.402 1.06-0.381 0.225-0.946 0.229-1.11-0.114-0.159-0.343-0.123-0.754 0.402-1.11 0.366-0.25 0.946-0.179 1.1 0.164z" fill="#fff"/>
  </g>
  <g id="lt-left-eye">
    <path id="lt-left-iris" d="m40.028 23.1c0.478 0.861 0.757 2.95-0.336 3.68-0.986 0.664-2.64-0.125-3.62-1.76-0.965-1.62-0.967-3.42 0.343-4.06 1.07-0.524 2.7 0.494 3.62 2.14z" fill="#242424" stroke="#fff" stroke-width=".77"/>
    <path id="lt-left-pupil" d="m38.428 22c0.346 0.344 0.509 0.834 0.25 1.1-0.259 0.261-0.956 0.148-1.3-0.196-0.346-0.344-0.417-0.834-0.158-1.1 0.259-0.261 0.865-0.148 1.21 0.196z" fill="#fff" stroke-width="0"/>
  </g>
  <g id="lt-mouth-teeth" stroke="#242424" stroke-width=".435">
    <path id="lt-mouth" d="m28.728 30.9c-0.105-0.161 1.03-1.1 1.59-1.17 0.595-0.0748 1.92 1.11 3.26 1.12 1.63 0.0065 3.68-1.47 4.34-0.936 0.134 0.108-0.635 0.611-1.21 1.16-0.578 0.546-1.02 1.19-1.52 1.56-1.44 1.06-2.74 0.364-3.43-0.112-2.7-1.88-2.95-1.49-3.03-1.61z" fill="#242424"/>
    <path id="lt-right-fang" d="m30.328 29.8c-0.0201 0-0.0394 0.0012-0.058 0.0036-0.322 0.0406-0.832 0.367-1.19 0.668 0.0411 0.399 0.338 0.961 0.5 1.72 0.1 0.473 0.63 2.28 0.769 2.28 0.0867 0.0027 0.223-0.19 0.48-1.9 0.0795-0.53 0.536-2.38 0.536-2.38-0.425-0.218-0.788-0.402-1.04-0.403z" fill="#fff"/>
    <path id="lt-left-fang" d="m37.428 29.8c-0.549 0.0048-1.4 0.407-2.29 0.713 0.203 0.705 0.373 1.33 0.445 1.6 0.192 0.723 0.458 2.35 0.668 2.35 0.255 2e-4 0.416-1.59 0.721-2.68 0.087-0.314 0.38-1.73 0.459-1.98-1e-3 0-2e-3 -2e-4 -0.0029-2e-4z" fill="#fff"/>
  </g>
</svg>
