<?xml version="1.0" encoding="UTF-8"?>
<svg width="66" height="66" version="1.1" viewBox="0 0 66 66" xml:space="preserve" xmlns="http://www.w3.org/2000/svg">
  <path id="dk-wings" d="m19.517 22.725c-1.0619-0.086-3.828 1.8892-6.8308 4.3212-4.3196 3.4983-5.6398 5.5445-5.6421 6.7819 0 1.2376 1.3137 1.3739 3.0078 2.5914 1.6942 1.2176 2.5394 1.9114 2.7426 3.6793 0.2586 2.2489-1.3382 4.8302-0.7242 5.3817 0.4254 0.382 2.4706 0.6124 3.2428 1.1475 0.7417 0.5137 1.2842 2.2197 2.2631 2.5492 0.7515 0.2529 1.2843-0.5812 2.8233-0.031 2.3115 0.8255 3.5788 3.3681 4.688 5.5672 0.7325 1.4522 1.5846 2.3724 2.5881 3.0993 1.3185 0.9555 3.3853 1.3444 5.3143 1.3357 0 2e-4 0 0 0.01 0 0 0 0 2e-4 0.01 0 1.929 0.01 3.9957-0.3802 5.3143-1.3357 1.0035-0.7269 1.8553-1.6471 2.588-3.0993 1.1091-2.1991 2.3765-4.7417 4.6879-5.5672 1.5391-0.5498 2.0718 0.2843 2.8234 0.031 0.9789-0.3295 1.5215-2.0355 2.2631-2.5492 0.7721-0.5351 2.8173-0.7655 3.2428-1.1475 0.6141-0.5515-0.9828-3.1328-0.7243-5.3817 0.2032-1.7679 1.0485-2.4617 2.7427-3.6793 1.6942-1.2175 3.0101-1.3538 3.0079-2.5914 0-1.2374-1.3227-3.2836-5.6421-6.7819-3.0029-2.432-5.769-4.4075-6.831-4.3212-0.071 0.01-0.1341 0.021-0.1891 0.045-0.511 0.2273-1.292-0.065-4.2038 5.5464-1.0663 2.0553-2.01 7.6996-9.0854 7.6378-7.0754 0.062-8.0188-5.5825-9.0853-7.6378-2.9118-5.6118-3.6927-5.3191-4.2037-5.5464-0.055-0.025-0.1184-0.039-0.1892-0.045z" fill="#4c4c4c" stroke="#fff" stroke-width=".435"/>
  <path id="dk-bottom-band" d="m32.723 49.71c7.255-0.074 8.673-0.8168 8.8822-0.3612 0.2834 0.6168 0.01 3.2776-0.2526 3.5641-0.4383 0.4829-5.5919 1.0187-8.4177 1.0059-3.0425-0.014-8.1575-0.4111-8.365-0.8206-0.2681-0.5288-0.9305-3.3218-0.6881-3.653 0.2128-0.2908 3.6405 0.3175 8.8412 0.2648z" fill="#ffb821"/>
  <path id="dk-top-band" d="m31.881 41.198c2.6627 0 8.5686 0.3542 8.9853 1.0383 0.174 0.2858 0.6392 2.4799 0.481 3.0425-0.1401 0.4982-3.3382-0.078-8.6549-0.3198-5.3165-0.2416-8.8039 0.6643-9.0922 0.299-0.2195-0.278 0.3935-3.1412 0.5731-3.2886 0.6677-0.5479 4.4985-0.7711 7.7077-0.7714z" fill="#ffb821"/>
  <path id="dk-right-antenna" d="m28.892 19.998s-2.2114-5.5959-2.8528-9.4317c-0.4269-2.5516-1.9433-3.1562-2.4517-2.8992-0.7681 0.3883-0.968 1.9833 0.4735 4.2445 2.0891 3.2769 3.8908 8.537 3.8908 8.537z" fill="#4c4c4c" stroke="#fff" stroke-width=".435"/>
  <path id="dk-left-antenna" d="m38.838 20.883s2.9676-5.5597 4.9766-8.6561c1.4079-2.1702 1.0545-3.6177 0.5293-3.8382-0.9685-0.4067-1.9967 0.7285-2.7265 3.3088-0.846 2.9915-3.5734 8.709-3.5734 8.709z" fill="#4c4c4c" stroke="#fff" stroke-width=".435"/>
  <path id="dk-head" d="m42.112 27.768c-0.1285 5.9627-4.3856 9.3746-9.4262 9.3746-5.0404 0-8.8268-4.268-8.8268-9.3746 0-5.1064 4.1718-9.2888 9.2121-9.2888 5.0404 0 9.1509 4.1836 9.0409 9.2888z" fill="#ffb821" stroke="#ffcf68" stroke-width=".435"/>
  <g id="dk-right-eye">
    <path id="dk-right-iris" d="m31.15 24.73c-0.5767 1.37-2.0235 2.5675-3.2959 2.2141-1.2724-0.3532-1.6606-2.1604-1.355-3.536 0.3867-1.7404 2.6656-3.3378 3.938-2.6849 1.175 0.6028 1.2997 2.6129 0.7129 4.0068z" fill="#242424" stroke="#fff" stroke-width=".77"/>
    <path id="dk-right-pupil" d="m29.294 21.953c0.1589 0.3433-0.0211 0.8376-0.4018 1.0627-0.3807 0.2252-0.9463 0.2294-1.1052-0.114-0.1587-0.3434-0.123-0.7542 0.402-1.1128 0.366-0.2501 0.9462-0.1793 1.105 0.1641z" fill="#fff"/>
  </g>
  <g id="dk-left-eye">
    <path id="dk-left-iris" d="m39.98 23.083c0.4776 0.8609 0.7566 2.9474-0.336 3.6833-0.9864 0.6643-2.6444-0.1254-3.6225-1.7628-0.9652-1.616-0.9673-3.4185 0.3432-4.0603 1.0702-0.5241 2.7024 0.4938 3.6153 2.1398z" fill="#242424" stroke="#fff" stroke-width=".77"/>
    <path id="dk-left-pupil" d="m38.469 22.02c0.3462 0.3439 0.5087 0.8341 0.2498 1.095-0.2593 0.2608-0.9565 0.1475-1.3026-0.1964-0.3465-0.3439-0.417-0.8341-0.158-1.095 0.2589-0.2608 0.8646-0.1475 1.2108 0.1964z" fill="#fff"/>
  </g>
  <g id="dk-mouth-teeth" stroke="#242424" stroke-width=".435">
    <path id="dk-mouth" d="m28.69 30.939c-0.1046-0.1606 1.0281-1.1013 1.5908-1.1724 0.5952-0.0748 1.9164 1.1108 3.257 1.1164 1.6323 0.0065 3.6773-1.4695 4.3426-0.9359 0.1339 0.1075-0.6348 0.6114-1.2122 1.1577-0.5776 0.5462-1.02 1.1866-1.5208 1.5565-1.4374 1.0617-2.7407 0.3643-3.4253-0.1124-2.6954-1.8778-2.9512-1.4852-3.0321-1.6099z" fill="#242424"/>
    <path id="dk-right-fang" d="m30.338 29.763c-0.0201 0-0.0394 0.0012-0.058 0.0036-0.3225 0.0406-0.8315 0.3667-1.1881 0.6682 0.0411 0.3991 0.338 0.9612 0.5003 1.7239 0.1005 0.473 0.6298 2.2808 0.7687 2.2849 0.0867 0.0027 0.2227-0.1899 0.4798-1.8991 0.0795-0.5295 0.5365-2.3783 0.5365-2.3783-0.4247-0.2177-0.7885-0.4025-1.0392-0.403z" fill="#fff"/>
    <path id="dk-left-fang" d="m37.474 29.831c-0.5488 0.0048-1.397 0.4071-2.2897 0.7127 0.203 0.7054 0.3728 1.3296 0.445 1.6019 0.1923 0.7228 0.4581 2.3472 0.668 2.3477 0.2546 2e-4 0.4162-1.587 0.7206-2.6842 0.087-0.3136 0.3803-1.7254 0.4593-1.9779-1e-3 0-2e-3 -2e-4 -0.0029-2e-4z" fill="#fff"/>
  </g>
</svg>
